<svg width="400" height="64" viewBox="0 0 400 64" fill="none" xmlns="http://www.w3.org/2000/svg">
<path d="M20.6696 62.3837C18.2953 62.3837 17.1895 61.3587 17.1895 58.8812V8.90093H3.94692C1.48522 8.90093 0.466797 7.79107 0.466797 5.39849V4.37354C0.466797 1.89605 1.48522 0.871094 3.94692 0.871094H40.8754C43.2527 0.871094 44.2711 1.89605 44.2711 4.37354V5.39849C44.2711 7.79107 43.2527 8.90093 40.8754 8.90093H27.8859V58.8812C27.8859 61.3587 26.7831 62.3837 24.4058 62.3837H20.6696Z" fill="white"/>
<path d="M83.5749 53.9263C85.9522 53.9263 87.055 54.9512 87.055 57.4287V58.8812C87.055 61.3587 85.9522 62.3837 83.5749 62.3837H70.1636C56.2401 62.3837 49.7891 55.9762 49.7891 42.306V4.37354C49.7891 1.89605 50.8919 0.871094 53.2692 0.871094H57.0054C59.3797 0.871094 60.4855 1.89605 60.4855 4.37354V39.8286C60.4855 49.6536 64.5592 53.9263 74.6621 53.9263H83.5749Z" fill="white"/>
<path d="M129.924 5.99509C129.584 8.64239 128.734 9.33075 126.697 9.06996C122.289 8.36029 117.834 7.98926 113.37 7.96009C106.494 7.96009 101.655 9.32771 101.655 15.7352C101.655 29.1476 131.536 20.6053 131.536 45.2952C131.536 58.1951 122.798 63.238 108.359 63.238C102.418 63.238 97.663 62.6315 93.4205 62.0251C91.0432 61.7703 90.3652 60.6574 90.3652 58.5226V57.155C90.3652 54.7624 91.7211 53.9952 93.9297 54.165C96.3071 54.5077 102.927 55.2779 108.275 55.2779C119.396 55.2779 121.18 50.1501 121.18 45.9654C121.18 29.7298 91.3837 37.2502 91.3837 16.5752C91.3837 3.07487 101.568 0 113.379 0C118.047 0 123.735 0.512479 127.556 1.36762C129.168 1.70725 130.527 2.22276 130.102 4.61231L129.924 5.99509Z" fill="white"/>
<path d="M169.568 19.9209C169.396 21.1338 169.143 21.4613 168.124 21.3734C164.388 20.9489 163.37 20.7669 159.633 20.7669C149.362 20.7669 145.032 27.2624 145.032 39.0494V40.5019C145.032 52.5497 149.618 58.6964 160.058 58.6964C162.845 58.6981 165.628 58.4699 168.378 58.0141C169.48 57.8443 169.652 58.9541 169.736 59.5515L169.905 60.5765C170.077 61.7743 169.652 62.1139 168.462 62.2868C164.813 62.8933 161.586 63.2268 158.956 63.2268C144.863 63.2268 139.006 55.3668 139.006 40.329V39.0463C139.006 24.4392 145.032 16.2365 158.531 16.2365C161.833 16.1943 165.131 16.4807 168.378 17.0916C169.396 17.2614 169.99 17.6041 169.821 18.8838L169.568 19.9209Z" fill="white"/>
<path d="M177.547 38.973C177.547 24.6206 184.176 16.248 197.24 16.248C210.305 16.248 216.934 24.6206 216.934 38.973V40.4255C216.934 54.693 210.305 63.2384 197.24 63.2384C184.176 63.2384 177.547 54.693 177.547 40.4255V38.973ZM210.908 38.973C210.908 27.4498 206.409 20.7785 197.24 20.7785C187.987 20.7785 183.573 27.4498 183.573 38.973V40.4255C183.573 51.7031 187.987 58.708 197.24 58.708C206.409 58.708 210.908 51.7031 210.908 40.4255V38.973Z" fill="white"/>
<path d="M262.097 60.5029C262.097 61.7856 261.495 62.383 260.314 62.383H258.361C257.09 62.383 256.493 61.7765 256.493 60.5029V32.7381C256.493 25.7302 253.353 21.033 245.628 21.033C241.045 21.033 234.931 22.6553 232.726 23.7622V60.5029C232.726 61.7856 232.123 62.383 230.858 62.383H228.905C227.631 62.383 227.037 61.7765 227.037 60.5029V22.4855C227.037 21.2028 227.64 20.3628 228.821 19.7563C232.301 18.134 239.43 16.2539 246.053 16.2539C257.427 16.2539 262.097 22.4916 262.097 32.0589V60.5029Z" fill="white"/>
<path d="M274.658 21.6308H271.602C270.331 21.6308 269.734 21.0243 269.734 19.7507V18.9835C269.734 17.7008 270.337 17.1034 271.602 17.1034H274.658V9.24338C274.658 7.96067 275.26 7.36328 276.523 7.36328H278.475C279.75 7.36328 280.344 7.96976 280.344 9.24338V17.1034H288.41C289.765 17.1034 290.278 17.7099 290.278 18.9835V19.7507C290.278 21.0334 289.765 21.6308 288.41 21.6308H280.347V50.7632C280.347 54.951 281.705 57.856 286.204 57.856C287.666 57.8315 289.12 57.6278 290.534 57.2496C291.299 57.1647 291.808 57.856 291.808 59.0448V59.8999C291.808 61.1796 291.721 61.5222 290.365 61.6951C288.826 62.1719 287.221 62.4021 285.61 62.3774C277.8 62.3774 274.661 58.4352 274.661 50.7572L274.658 21.6308Z" fill="white"/>
<path d="M325.594 38.5454V29.4906C325.594 24.2779 323.045 20.7754 314.726 20.7754C310.312 20.7754 304.541 21.6306 301.824 22.1431C300.38 22.4008 300.212 22.0582 299.871 20.6905L299.702 20.0082C299.362 18.4708 299.956 18.0432 301.23 17.7855C304.879 16.9303 311.586 16.248 315.994 16.248C327.369 16.248 331.274 20.7754 331.274 29.4906V58.623C331.274 59.9907 331.021 60.4182 329.405 60.8458C326.859 61.8708 321.511 63.2384 314.72 63.2384C304.195 63.2384 296.129 60.2454 296.129 50.2505V49.0558C296.129 40.938 302.155 36.4106 312.939 36.4106C317.246 36.4112 321.522 37.1327 325.594 38.5454ZM302.164 49.9958C302.164 56.6671 306.831 59.1355 315.066 59.1355C320.246 59.1355 324.066 58.1106 325.594 57.5132V42.6543C323.895 41.7143 319.48 40.4316 314.304 40.4316C306.169 40.4316 302.164 43.5944 302.164 49.4015V49.9958Z" fill="white"/>
<path d="M371.942 19.9209C371.773 21.1338 371.517 21.4613 370.498 21.3734C366.765 20.9488 365.747 20.7669 362.01 20.7669C351.739 20.7669 347.409 27.2623 347.409 39.0493V40.5019C347.409 52.5497 351.992 58.6964 362.435 58.6964C365.222 58.698 368.005 58.4698 370.755 58.0141C371.857 57.8443 372.026 58.9541 372.113 59.5515L372.282 60.5765C372.451 61.7743 372.026 62.1139 370.839 62.2868C367.19 62.8933 363.963 63.2268 361.333 63.2268C347.24 63.2268 341.383 55.3668 341.383 40.329V39.0463C341.383 24.4392 347.409 16.2365 360.908 16.2365C364.21 16.1944 367.508 16.4808 370.755 17.0916C371.773 17.2614 372.366 17.6041 372.198 18.8838L371.942 19.9209Z" fill="white"/>
<path d="M382.382 21.6308H379.327C378.056 21.6308 377.459 21.0243 377.459 19.7507V18.9835C377.459 17.7008 378.062 17.1034 379.327 17.1034H382.382V9.24338C382.382 7.96067 382.985 7.36328 384.25 7.36328H386.203C387.477 7.36328 388.071 7.96976 388.071 9.24338V17.1034H396.137C397.493 17.1034 398.002 17.7099 398.002 18.9835V19.7507C398.002 21.0334 397.493 21.6308 396.137 21.6308H388.071V50.7632C388.071 54.951 389.43 57.856 393.929 57.856C395.391 57.8315 396.845 57.6278 398.258 57.2496C399.024 57.1647 399.533 57.856 399.533 59.0448V59.8999C399.533 61.1796 399.446 61.5222 398.09 61.6951C396.55 62.1719 394.946 62.4021 393.335 62.3774C385.525 62.3774 382.382 58.4352 382.382 50.7572V21.6308Z" fill="white"/>
</svg>
